<svg width="223" height="36" viewBox="0 0 223 36" fill="none" xmlns="http://www.w3.org/2000/svg">
<rect x="0.833984" y="0.5" width="37" height="35" rx="17.5" fill="#1A1A1A"/>
<rect x="0.833984" y="0.5" width="37" height="35" rx="17.5" stroke="#262626"/>
<path d="M18.4926 9.30996C18.8862 8.69719 19.7818 8.6972 20.1754 9.30996L22.5326 12.9799C22.668 13.1907 22.8776 13.343 23.12 13.4067L27.3387 14.5144C28.0431 14.6994 28.3199 15.5512 27.8587 16.1148L25.0968 19.4907C24.9382 19.6847 24.8581 19.9311 24.8725 20.1813L25.1226 24.5358C25.1643 25.2629 24.4397 25.7893 23.7612 25.5249L19.697 23.9415C19.4635 23.8505 19.2044 23.8505 18.9709 23.9415L14.9068 25.5249C14.2282 25.7893 13.5036 25.2629 13.5454 24.5358L13.7955 20.1813C13.8099 19.9311 13.7298 19.6847 13.5711 19.4907L10.8093 16.1148C10.3481 15.5512 10.6249 14.6994 11.3293 14.5144L15.548 13.4067C15.7903 13.343 16 13.1907 16.1354 12.9799L18.4926 9.30996Z" fill="#FFE600"/>
<rect x="46.834" y="0.5" width="37" height="35" rx="17.5" fill="#1A1A1A"/>
<rect x="46.834" y="0.5" width="37" height="35" rx="17.5" stroke="#262626"/>
<path d="M64.4926 9.30996C64.8862 8.69719 65.7818 8.6972 66.1754 9.30996L68.5326 12.9799C68.668 13.1907 68.8776 13.343 69.12 13.4067L73.3387 14.5144C74.0431 14.6994 74.3199 15.5512 73.8587 16.1148L71.0968 19.4907C70.9382 19.6847 70.8581 19.9311 70.8725 20.1813L71.1226 24.5358C71.1643 25.2629 70.4397 25.7893 69.7612 25.5249L65.697 23.9415C65.4635 23.8505 65.2044 23.8505 64.9709 23.9415L60.9068 25.5249C60.2282 25.7893 59.5036 25.2629 59.5454 24.5358L59.7955 20.1813C59.8099 19.9311 59.7298 19.6847 59.5711 19.4907L56.8093 16.1148C56.3481 15.5512 56.6249 14.6994 57.3293 14.5144L61.548 13.4067C61.7903 13.343 62 13.1907 62.1354 12.9799L64.4926 9.30996Z" fill="#FFE600"/>
<rect x="92.834" y="0.5" width="37" height="35" rx="17.5" fill="#1A1A1A"/>
<rect x="92.834" y="0.5" width="37" height="35" rx="17.5" stroke="#262626"/>
<path d="M110.493 9.30996C110.886 8.69719 111.782 8.6972 112.175 9.30996L114.533 12.9799C114.668 13.1907 114.878 13.343 115.12 13.4067L119.339 14.5144C120.043 14.6994 120.32 15.5512 119.859 16.1148L117.097 19.4907C116.938 19.6847 116.858 19.9311 116.872 20.1813L117.123 24.5358C117.164 25.2629 116.44 25.7893 115.761 25.5249L111.697 23.9415C111.464 23.8505 111.204 23.8505 110.971 23.9415L106.907 25.5249C106.228 25.7893 105.504 25.2629 105.545 24.5358L105.796 20.1813C105.81 19.9311 105.73 19.6847 105.571 19.4907L102.809 16.1148C102.348 15.5512 102.625 14.6994 103.329 14.5144L107.548 13.4067C107.79 13.343 108 13.1907 108.135 12.9799L110.493 9.30996Z" fill="#FFE600"/>
<rect x="138.834" y="0.5" width="37" height="35" rx="17.5" fill="#1A1A1A"/>
<rect x="138.834" y="0.5" width="37" height="35" rx="17.5" stroke="#262626"/>
<path d="M156.493 9.30996C156.886 8.69719 157.782 8.6972 158.175 9.30996L160.533 12.9799C160.668 13.1907 160.878 13.343 161.12 13.4067L165.339 14.5144C166.043 14.6994 166.32 15.5512 165.859 16.1148L163.097 19.4907C162.938 19.6847 162.858 19.9311 162.872 20.1813L163.123 24.5358C163.164 25.2629 162.44 25.7893 161.761 25.5249L157.697 23.9415C157.464 23.8505 157.204 23.8505 156.971 23.9415L152.907 25.5249C152.228 25.7893 151.504 25.2629 151.545 24.5358L151.796 20.1813C151.81 19.9311 151.73 19.6847 151.571 19.4907L148.809 16.1148C148.348 15.5512 148.625 14.6994 149.329 14.5144L153.548 13.4067C153.79 13.343 154 13.1907 154.135 12.9799L156.493 9.30996Z" fill="#FFE600"/>
<rect x="184.834" y="0.5" width="37" height="35" rx="17.5" fill="#1A1A1A"/>
<rect x="184.834" y="0.5" width="37" height="35" rx="17.5" stroke="#262626"/>
<path d="M202.493 9.30996C202.886 8.69719 203.782 8.6972 204.175 9.30996L206.533 12.9799C206.668 13.1907 206.878 13.343 207.12 13.4067L211.339 14.5144C212.043 14.6994 212.32 15.5512 211.859 16.1148L209.097 19.4907C208.938 19.6847 208.858 19.9311 208.872 20.1813L209.123 24.5358C209.164 25.2629 208.44 25.7893 207.761 25.5249L203.697 23.9415C203.464 23.8505 203.204 23.8505 202.971 23.9415L198.907 25.5249C198.228 25.7893 197.504 25.2629 197.545 24.5358L197.796 20.1813C197.81 19.9311 197.73 19.6847 197.571 19.4907L194.809 16.1148C194.348 15.5512 194.625 14.6994 195.329 14.5144L199.548 13.4067C199.79 13.343 200 13.1907 200.135 12.9799L202.493 9.30996Z" fill="#FFE600"/>
</svg>
